<svg xmlns="http://www.w3.org/2000/svg" width="1280" height="640" viewBox="0 0 1280 640">
<g stroke="#818cf8" stroke-width="1.3" fill="none" stroke-linecap="round" stroke-linejoin="round">
<path d="M 880 120 L 880 40 L 840 40"/>
<path d="M 920 520 L 960 520 L 960 480 L 880 480 L 880 400 L 960 400 L 960 520"/>
<path d="M 1080 80 L 1080 200 L 1000 200 L 1000 240"/>
<path d="M 160 320 L 360 320 L 360 360"/>
<path d="M 1000 360 L 1040 360 L 1040 480 L 1000 480 L 1000 400 L 1040 400 L 1040 360"/>
<path d="M 560 240 L 560 320 L 680 320 L 680 200 L 480 200 L 480 120"/>
<path d="M 280 360 L 160 360 L 160 280 L 40 280 L 40 400 L 40 400"/>
<path d="M 800 520 L 960 520 L 960 600 L 1040 600 L 1040 480"/>
<path d="M 1000 440 L 1000 560 L 920 560 L 920 600 L 880 600 L 880 520"/>
<path d="M 1080 480 L 1080 600 L 1240 600 L 1240 600 L 1040 600 L 1040 600"/>
<path d="M 200 240 L 80 240 L 80 200 L 280 200 L 280 120 L 360 120"/>
<path d="M 760 560 L 760 600 L 720 600 L 720 600 L 680 600 L 680 560 L 520 560"/>
<path d="M 1120 120 L 1120 40 L 1000 40 L 1000 120 L 880 120 L 880 240 L 1080 240"/>
<path d="M 640 120 L 680 120 L 680 40 L 640 40"/>
<path d="M 960 480 L 840 480 L 840 400"/>
<path d="M 400 480 L 200 480 L 200 560 L 360 560 L 360 520 L 200 520"/>
<path d="M 520 320 L 480 320 L 480 160 L 520 160 L 520 80 L 320 80"/>
<path d="M 640 160 L 720 160 L 720 40 L 680 40 L 680 40 L 600 40"/>
<path d="M 600 360 L 640 360 L 640 200 L 480 200 L 480 360 L 640 360"/>
<path d="M 960 520 L 960 600 L 840 600 L 840 560 L 720 560 L 720 520 L 920 520"/>
<path d="M 1160 400 L 1080 400 L 1080 360 L 920 360"/>
<path d="M 200 440 L 200 400 L 400 400 L 400 520"/>
<path d="M 320 480 L 400 480 L 400 600 L 440 600 L 440 440"/>
<path d="M 840 440 L 640 440 L 640 520"/>
<path d="M 520 120 L 360 120 L 360 160 L 400 160"/>
<path d="M 1200 160 L 1000 160 L 1000 40 L 1200 40 L 1200 40"/>
<path d="M 320 480 L 320 520 L 160 520 L 160 560 L 40 560"/>
<path d="M 1040 160 L 1240 160 L 1240 200 L 1200 200 L 1200 160"/>
<path d="M 1120 280 L 1120 360 L 1000 360 L 1000 400 L 1080 400 L 1080 360 L 1240 360"/>
<path d="M 1200 320 L 1200 240 L 1040 240 L 1040 160 L 1200 160 L 1200 40 L 1160 40"/>
<path d="M 560 80 L 680 80 L 680 160 L 640 160 L 640 40 L 760 40"/>
<path d="M 1160 120 L 1240 120 L 1240 160 L 1120 160 L 1120 40"/>
<path d="M 120 120 L 280 120 L 280 40 L 160 40 L 160 40 L 40 40 L 40 40"/>
<path d="M 600 120 L 600 40 L 760 40 L 760 200 L 960 200"/>
<path d="M 240 200 L 240 280 L 400 280 L 400 160 L 480 160 L 480 280"/>
<path d="M 640 360 L 640 440 L 520 440 L 520 480 L 400 480 L 400 400"/>
<path d="M 240 80 L 440 80 L 440 40"/>
<path d="M 600 480 L 760 480 L 760 560 L 720 560 L 720 400 L 640 400 L 640 440"/>
<path d="M 760 200 L 960 200 L 960 360"/>
<path d="M 840 520 L 920 520 L 920 600 L 1000 600 L 1000 600 L 880 600 L 880 600"/>
<path d="M 960 240 L 1160 240 L 1160 160 L 1080 160"/>
<path d="M 560 520 L 560 360 L 680 360 L 680 520"/>
<path d="M 120 200 L 40 200 L 40 360 L 40 360 L 40 520 L 240 520"/>
<path d="M 1000 520 L 1000 360 L 880 360 L 880 520 L 720 520 L 720 600 L 560 600"/>
<path d="M 240 440 L 440 440 L 440 400 L 520 400 L 520 480 L 400 480 L 400 600"/>
<path d="M 320 360 L 440 360 L 440 480 L 280 480 L 280 440"/>
<path d="M 520 200 L 520 160 L 440 160"/>
<path d="M 1120 80 L 960 80 L 960 40 L 1080 40 L 1080 120 L 1000 120 L 1000 160"/>
<path d="M 800 80 L 800 240 L 760 240 L 760 200 L 960 200"/>
<path d="M 1080 120 L 1080 280 L 1120 280 L 1120 320 L 1240 320 L 1240 160 L 1240 160"/>
<path d="M 960 160 L 1160 160 L 1160 320 L 1240 320 L 1240 440 L 1200 440"/>
<path d="M 400 360 L 400 480 L 240 480 L 240 560"/>
<path d="M 680 200 L 680 320 L 880 320 L 880 240 L 800 240"/>
<path d="M 1000 320 L 1000 160 L 1160 160 L 1160 120 L 1240 120 L 1240 200"/>
<path d="M 440 480 L 600 480 L 600 600 L 720 600 L 720 600 L 680 600 L 680 480"/>
</g>
<g fill="#818cf8">
<circle cx="960" cy="200" r="2.4"/>
<circle cx="40" cy="560" r="2.4"/>
<circle cx="1120" cy="280" r="2.4"/>
<circle cx="1200" cy="160" r="2.4"/>
<circle cx="840" cy="400" r="2.4"/>
<circle cx="240" cy="560" r="2.4"/>
<circle cx="960" cy="520" r="2.4"/>
<circle cx="720" cy="520" r="2.4"/>
<circle cx="160" cy="320" r="2.4"/>
<circle cx="920" cy="520" r="2.4"/>
<circle cx="880" cy="240" r="2.4"/>
<circle cx="520" cy="120" r="2.4"/>
<circle cx="280" cy="480" r="2.4"/>
<circle cx="560" cy="360" r="2.4"/>
<circle cx="520" cy="440" r="2.4"/>
<circle cx="320" cy="360" r="2.4"/>
<circle cx="760" cy="40" r="2.4"/>
<circle cx="1000" cy="320" r="2.4"/>
<circle cx="960" cy="40" r="2.4"/>
<circle cx="720" cy="40" r="2.4"/>
<circle cx="160" cy="560" r="2.4"/>
<circle cx="360" cy="560" r="2.4"/>
<circle cx="960" cy="360" r="2.4"/>
<circle cx="400" cy="160" r="2.4"/>
<circle cx="1040" cy="240" r="2.4"/>
<circle cx="800" cy="240" r="2.4"/>
<circle cx="920" cy="360" r="2.4"/>
<circle cx="1200" cy="320" r="2.4"/>
<circle cx="1000" cy="240" r="2.4"/>
<circle cx="840" cy="560" r="2.4"/>
<circle cx="360" cy="160" r="2.4"/>
<circle cx="560" cy="600" r="2.4"/>
<circle cx="400" cy="480" r="2.4"/>
<circle cx="200" cy="400" r="2.4"/>
<circle cx="600" cy="480" r="2.4"/>
<circle cx="1000" cy="560" r="2.4"/>
<circle cx="1040" cy="160" r="2.4"/>
<circle cx="1240" cy="160" r="2.4"/>
<circle cx="1200" cy="240" r="2.4"/>
<circle cx="1000" cy="160" r="2.4"/>
<circle cx="840" cy="480" r="2.4"/>
<circle cx="560" cy="520" r="2.4"/>
<circle cx="1080" cy="40" r="2.4"/>
<circle cx="1040" cy="480" r="2.4"/>
<circle cx="400" cy="400" r="2.4"/>
<circle cx="480" cy="280" r="2.4"/>
<circle cx="1000" cy="480" r="2.4"/>
<circle cx="1080" cy="360" r="2.4"/>
<circle cx="800" cy="80" r="2.4"/>
<circle cx="680" cy="600" r="2.4"/>
<circle cx="40" cy="520" r="2.4"/>
<circle cx="440" cy="600" r="2.4"/>
<circle cx="1040" cy="400" r="2.4"/>
<circle cx="200" cy="240" r="2.4"/>
<circle cx="480" cy="200" r="2.4"/>
<circle cx="680" cy="200" r="2.4"/>
<circle cx="360" cy="320" r="2.4"/>
<circle cx="1000" cy="400" r="2.4"/>
<circle cx="1080" cy="280" r="2.4"/>
<circle cx="200" cy="560" r="2.4"/>
<circle cx="640" cy="200" r="2.4"/>
<circle cx="280" cy="440" r="2.4"/>
<circle cx="680" cy="520" r="2.4"/>
<circle cx="1080" cy="600" r="2.4"/>
<circle cx="880" cy="520" r="2.4"/>
<circle cx="240" cy="440" r="2.4"/>
<circle cx="520" cy="400" r="2.4"/>
<circle cx="640" cy="520" r="2.4"/>
<circle cx="480" cy="120" r="2.4"/>
<circle cx="280" cy="40" r="2.4"/>
<circle cx="1240" cy="320" r="2.4"/>
<circle cx="680" cy="120" r="2.4"/>
<circle cx="40" cy="40" r="2.4"/>
<circle cx="1080" cy="200" r="2.4"/>
<circle cx="880" cy="120" r="2.4"/>
<circle cx="640" cy="120" r="2.4"/>
<circle cx="200" cy="480" r="2.4"/>
<circle cx="280" cy="360" r="2.4"/>
<circle cx="40" cy="360" r="2.4"/>
<circle cx="1120" cy="80" r="2.4"/>
<circle cx="440" cy="440" r="2.4"/>
<circle cx="520" cy="320" r="2.4"/>
<circle cx="1160" cy="400" r="2.4"/>
<circle cx="640" cy="440" r="2.4"/>
<circle cx="80" cy="240" r="2.4"/>
<circle cx="680" cy="40" r="2.4"/>
<circle cx="440" cy="40" r="2.4"/>
<circle cx="880" cy="40" r="2.4"/>
<circle cx="1080" cy="120" r="2.4"/>
<circle cx="640" cy="40" r="2.4"/>
<circle cx="480" cy="360" r="2.4"/>
<circle cx="40" cy="280" r="2.4"/>
<circle cx="680" cy="360" r="2.4"/>
<circle cx="760" cy="240" r="2.4"/>
<circle cx="440" cy="360" r="2.4"/>
<circle cx="240" cy="280" r="2.4"/>
<circle cx="880" cy="360" r="2.4"/>
<circle cx="960" cy="240" r="2.4"/>
<circle cx="1160" cy="320" r="2.4"/>
<circle cx="640" cy="360" r="2.4"/>
<circle cx="1120" cy="320" r="2.4"/>
<circle cx="760" cy="560" r="2.4"/>
<circle cx="1200" cy="200" r="2.4"/>
<circle cx="520" cy="560" r="2.4"/>
<circle cx="320" cy="480" r="2.4"/>
<circle cx="280" cy="200" r="2.4"/>
<circle cx="720" cy="560" r="2.4"/>
<circle cx="40" cy="200" r="2.4"/>
<circle cx="920" cy="560" r="2.4"/>
<circle cx="560" cy="80" r="2.4"/>
<circle cx="840" cy="40" r="2.4"/>
<circle cx="240" cy="200" r="2.4"/>
<circle cx="520" cy="160" r="2.4"/>
<circle cx="320" cy="80" r="2.4"/>
<circle cx="1160" cy="240" r="2.4"/>
<circle cx="960" cy="160" r="2.4"/>
<circle cx="720" cy="160" r="2.4"/>
<circle cx="760" cy="480" r="2.4"/>
<circle cx="880" cy="600" r="2.4"/>
<circle cx="520" cy="480" r="2.4"/>
<circle cx="960" cy="480" r="2.4"/>
<circle cx="240" cy="520" r="2.4"/>
<circle cx="280" cy="120" r="2.4"/>
<circle cx="160" cy="280" r="2.4"/>
<circle cx="1200" cy="440" r="2.4"/>
<circle cx="520" cy="80" r="2.4"/>
<circle cx="1160" cy="160" r="2.4"/>
<circle cx="960" cy="80" r="2.4"/>
<circle cx="400" cy="600" r="2.4"/>
<circle cx="1120" cy="160" r="2.4"/>
<circle cx="1200" cy="40" r="2.4"/>
<circle cx="560" cy="320" r="2.4"/>
<circle cx="960" cy="400" r="2.4"/>
<circle cx="720" cy="400" r="2.4"/>
<circle cx="840" cy="600" r="2.4"/>
<circle cx="1040" cy="600" r="2.4"/>
<circle cx="400" cy="520" r="2.4"/>
<circle cx="160" cy="520" r="2.4"/>
<circle cx="1240" cy="600" r="2.4"/>
<circle cx="560" cy="240" r="2.4"/>
<circle cx="360" cy="520" r="2.4"/>
<circle cx="1000" cy="600" r="2.4"/>
<circle cx="1240" cy="200" r="2.4"/>
<circle cx="600" cy="120" r="2.4"/>
<circle cx="1000" cy="200" r="2.4"/>
<circle cx="360" cy="120" r="2.4"/>
<circle cx="840" cy="520" r="2.4"/>
<circle cx="480" cy="320" r="2.4"/>
<circle cx="800" cy="520" r="2.4"/>
<circle cx="1000" cy="520" r="2.4"/>
<circle cx="1080" cy="400" r="2.4"/>
<circle cx="160" cy="40" r="2.4"/>
<circle cx="600" cy="40" r="2.4"/>
<circle cx="1240" cy="120" r="2.4"/>
<circle cx="1000" cy="120" r="2.4"/>
<circle cx="840" cy="440" r="2.4"/>
<circle cx="400" cy="360" r="2.4"/>
<circle cx="160" cy="360" r="2.4"/>
<circle cx="600" cy="360" r="2.4"/>
<circle cx="1240" cy="440" r="2.4"/>
<circle cx="360" cy="360" r="2.4"/>
<circle cx="1000" cy="440" r="2.4"/>
<circle cx="760" cy="200" r="2.4"/>
<circle cx="680" cy="560" r="2.4"/>
<circle cx="1000" cy="40" r="2.4"/>
<circle cx="240" cy="480" r="2.4"/>
<circle cx="1040" cy="360" r="2.4"/>
<circle cx="400" cy="280" r="2.4"/>
<circle cx="480" cy="160" r="2.4"/>
<circle cx="1240" cy="360" r="2.4"/>
<circle cx="680" cy="160" r="2.4"/>
<circle cx="1000" cy="360" r="2.4"/>
<circle cx="1080" cy="240" r="2.4"/>
<circle cx="240" cy="80" r="2.4"/>
<circle cx="1160" cy="120" r="2.4"/>
<circle cx="440" cy="160" r="2.4"/>
<circle cx="200" cy="520" r="2.4"/>
<circle cx="640" cy="160" r="2.4"/>
<circle cx="600" cy="600" r="2.4"/>
<circle cx="40" cy="400" r="2.4"/>
<circle cx="1120" cy="120" r="2.4"/>
<circle cx="680" cy="480" r="2.4"/>
<circle cx="440" cy="480" r="2.4"/>
<circle cx="880" cy="480" r="2.4"/>
<circle cx="680" cy="80" r="2.4"/>
<circle cx="440" cy="80" r="2.4"/>
<circle cx="1080" cy="160" r="2.4"/>
<circle cx="1160" cy="40" r="2.4"/>
<circle cx="200" cy="440" r="2.4"/>
<circle cx="1120" cy="40" r="2.4"/>
<circle cx="120" cy="200" r="2.4"/>
<circle cx="1080" cy="480" r="2.4"/>
<circle cx="880" cy="400" r="2.4"/>
<circle cx="440" cy="400" r="2.4"/>
<circle cx="640" cy="400" r="2.4"/>
<circle cx="80" cy="200" r="2.4"/>
<circle cx="1120" cy="360" r="2.4"/>
<circle cx="760" cy="600" r="2.4"/>
<circle cx="1080" cy="80" r="2.4"/>
<circle cx="960" cy="600" r="2.4"/>
<circle cx="320" cy="520" r="2.4"/>
<circle cx="720" cy="600" r="2.4"/>
<circle cx="680" cy="320" r="2.4"/>
<circle cx="920" cy="600" r="2.4"/>
<circle cx="120" cy="120" r="2.4"/>
<circle cx="880" cy="320" r="2.4"/>
<circle cx="520" cy="200" r="2.4"/>
</g>
<g fill="none" stroke="#818cf8" stroke-width="1.2">
<rect x="240" y="400" width="80" height="80" rx="3"/>
<rect x="340" y="340" width="120" height="120" rx="3"/>
<rect x="220" y="200" width="120" height="80" rx="3"/>
<rect x="540" y="160" width="120" height="80" rx="3"/>
<rect x="1000" y="380" width="80" height="120" rx="3"/>
<rect x="140" y="80" width="120" height="80" rx="3"/>
</g>
</svg>